<svg width="40" height="17" viewBox="0 0 40 17" fill="none" xmlns="http://www.w3.org/2000/svg">
<path d="M7.16755 2.7689C6.7078 3.31294 5.97221 3.74203 5.23661 3.68073C5.14466 2.94514 5.5048 2.16357 5.92623 1.68084C6.38598 1.12148 7.19053 0.723033 7.84184 0.692383C7.91847 1.45863 7.61963 2.20955 7.16755 2.7689ZM7.83418 3.82632C6.7691 3.76502 5.85727 4.43165 5.35155 4.43165C4.83817 4.43165 4.06426 3.85697 3.22139 3.87229C2.12566 3.88762 1.10656 4.50828 0.547201 5.49673C-0.602164 7.47364 0.248366 10.4007 1.35942 12.0098C1.90345 12.8067 2.55476 13.6802 3.41295 13.6496C4.22517 13.6189 4.54699 13.1209 5.52778 13.1209C6.51624 13.1209 6.79975 13.6496 7.65794 13.6342C8.54678 13.6189 9.10614 12.8373 9.65018 12.0405C10.2708 11.1363 10.5237 10.2551 10.539 10.2091C10.5237 10.1938 8.82263 9.5425 8.80731 7.58092C8.79198 5.94115 10.1482 5.15958 10.2095 5.11361C9.44329 3.97957 8.24795 3.85697 7.83418 3.82632ZM13.9871 1.60421V13.55H15.8414V9.46587H18.4083C20.753 9.46587 22.4005 7.85676 22.4005 5.52738C22.4005 3.198 20.7837 1.60421 18.4696 1.60421H13.9871ZM15.8414 3.16735H17.9792C19.5884 3.16735 20.5078 4.02554 20.5078 5.53504C20.5078 7.04454 19.5884 7.9104 17.9716 7.9104H15.8414V3.16735ZM25.7873 13.6419C26.952 13.6419 28.0324 13.0519 28.5228 12.1171H28.5611V13.55H30.2775V7.6039C30.2775 5.87985 28.8982 4.7688 26.7757 4.7688C24.8065 4.7688 23.3506 5.89518 23.297 7.44299H24.9674C25.1053 6.7074 25.7873 6.22466 26.7221 6.22466C27.8561 6.22466 28.4921 6.75337 28.4921 7.7265V8.38547L26.178 8.5234C24.0249 8.65366 22.8602 9.53484 22.8602 11.0673C22.8602 12.6151 24.0632 13.6419 25.7873 13.6419ZM26.2853 12.2244C25.2969 12.2244 24.6686 11.7493 24.6686 11.0213C24.6686 10.2704 25.2739 9.83367 26.4309 9.76471L28.4921 9.63445V10.3087C28.4921 11.4275 27.542 12.2244 26.2853 12.2244ZM32.5685 16.7988C34.3769 16.7988 35.2274 16.1092 35.9706 14.0174L39.2272 4.88374H37.3422L35.1584 11.9408H35.1201L32.9363 4.88374H30.9977L34.1393 13.5806L33.9707 14.1093C33.6872 15.0058 33.2275 15.3506 32.4076 15.3506C32.262 15.3506 31.9785 15.3353 31.8636 15.32V16.7529C31.9709 16.7835 32.4306 16.7988 32.5685 16.7988Z" fill="white"/>
</svg>
