<svg width="41" height="17" viewBox="0 0 41 17" fill="none" xmlns="http://www.w3.org/2000/svg">
<path d="M18.9297 8.63185V13.2515H17.4517V1.84305H21.3717C21.8396 1.83336 22.3049 1.91565 22.7406 2.08516C23.1762 2.25467 23.5737 2.50806 23.9101 2.83069C24.2499 3.13374 24.5204 3.5054 24.7032 3.92068C24.8861 4.33597 24.9773 4.78526 24.9705 5.23836C24.9802 5.69389 24.8905 6.14611 24.7075 6.56404C24.5245 6.98197 24.2525 7.35572 23.9101 7.65968C23.2247 8.30779 22.3785 8.63154 21.3717 8.63094H18.9297V8.63185ZM18.9297 3.2476V7.23003H21.4085C21.6802 7.23802 21.9506 7.18968 22.2025 7.08811C22.4543 6.98654 22.6819 6.83398 22.8709 6.64018C23.0589 6.45898 23.2083 6.24224 23.3103 6.00279C23.4123 5.76334 23.4649 5.50604 23.4649 5.2461C23.4649 4.98615 23.4123 4.72885 23.3103 4.4894C23.2083 4.24995 23.0589 4.03322 22.8709 3.85202C22.6843 3.65413 22.4574 3.49783 22.2053 3.39347C21.9532 3.28911 21.6816 3.23908 21.4085 3.24669H18.9297V3.2476ZM28.3764 5.19103C29.4689 5.19103 30.3313 5.48049 30.9635 6.05942C31.5957 6.63836 31.9115 7.43211 31.9109 8.44069V13.2515H30.4971V12.1682H30.4329C29.8208 13.0603 29.0068 13.5063 27.9909 13.5063C27.1236 13.5063 26.398 13.2515 25.8142 12.7417C25.534 12.5078 25.3099 12.2147 25.1584 11.8841C25.0069 11.5534 24.9317 11.1933 24.9384 10.8301C24.9384 10.0224 25.2462 9.38009 25.8619 8.90311C26.4776 8.42613 27.2996 8.18703 28.3278 8.18581C29.2054 8.18581 29.9283 8.34511 30.4962 8.66371V8.32873C30.4979 8.08115 30.444 7.8363 30.3384 7.61195C30.2328 7.38759 30.0782 7.18935 29.8857 7.03159C29.4949 6.68194 28.9855 6.49115 28.4591 6.49726C27.6334 6.49726 26.9801 6.84256 26.499 7.53315L25.1972 6.72028C25.9133 5.70078 26.9731 5.19103 28.3764 5.19103ZM26.4641 10.862C26.4632 11.0485 26.5071 11.2326 26.5924 11.3988C26.6777 11.5651 26.8018 11.7087 26.9544 11.8178C27.2813 12.0728 27.687 12.2078 28.1029 12.2001C28.7266 12.1991 29.3245 11.9529 29.7655 11.5156C30.2551 11.0586 30.4999 10.5225 30.4999 9.90714C30.039 9.54303 29.3964 9.36097 28.572 9.36097C27.9716 9.36097 27.4709 9.50449 27.0701 9.79153C26.6652 10.0828 26.4641 10.4369 26.4641 10.862ZM40.0265 5.4459L35.0911 16.6923H33.5653L35.3968 12.7572L32.1515 5.4459H33.758L36.1037 11.0532H36.1358L38.4171 5.4459H40.0265Z" fill="white"/>
<path d="M12.9568 7.6361C12.9573 7.18948 12.9193 6.74363 12.8429 6.30347H6.60938V8.82765H10.1797C10.1066 9.23079 9.95198 9.6151 9.7251 9.9574C9.49821 10.2997 9.20377 10.5929 8.85952 10.8193V12.4578H10.9903C12.2379 11.3172 12.9568 9.6305 12.9568 7.6361Z" fill="#4285F4"/>
<path d="M6.60991 14.0408C8.39368 14.0408 9.89561 13.46 10.9908 12.4587L8.86005 10.8203C8.26699 11.219 7.50318 11.4465 6.60991 11.4465C4.88582 11.4465 3.42245 10.2941 2.89916 8.74121H0.704102V10.4298C1.25426 11.5152 2.09786 12.4277 3.14073 13.0654C4.18361 13.703 5.3847 14.0407 6.60991 14.0408Z" fill="#34A853"/>
<path d="M2.8989 8.74145C2.62226 7.92771 2.62226 7.04648 2.8989 6.23274V4.54419H0.703843C0.241032 5.45733 0 6.46513 0 7.4871C0 8.50906 0.241032 9.51686 0.703843 10.43L2.8989 8.74145Z" fill="#FBBC04"/>
<path d="M6.60991 3.52732C7.55255 3.51205 8.46339 3.86519 9.14556 4.51041L11.0322 2.6398C9.83586 1.5257 8.25103 0.914042 6.60991 0.933047C5.38469 0.933103 4.1836 1.27081 3.14073 1.90846C2.09786 2.54611 1.25426 3.45861 0.704102 4.54409L2.89916 6.23264C3.42244 4.67972 4.88581 3.52732 6.60991 3.52732Z" fill="#EA4335"/>
</svg>
