<svg width="41" height="13" viewBox="0 0 41 13" fill="none" xmlns="http://www.w3.org/2000/svg">
<path d="M17.8431 12.4924H14.5792L16.6191 0.89953H19.8833L17.8431 12.4924ZM11.8334 0.89953L8.72182 8.87317L8.35361 7.15614L8.35395 7.15676L7.2557 1.94333C7.2557 1.94333 7.12291 0.89953 5.70743 0.89953H0.563291L0.50293 1.09582C0.50293 1.09582 2.07602 1.39848 3.91704 2.42089L6.75269 12.4927H10.1534L15.3462 0.89953H11.8334ZM37.5055 12.4924H40.5025L37.8895 0.89922H35.2658C34.0542 0.89922 33.7591 1.76316 33.7591 1.76316L28.8913 12.4924H32.2936L32.974 10.7704H37.1232L37.5055 12.4924ZM33.914 8.39158L35.6289 4.05326L36.5937 8.39158H33.914ZM29.1465 3.68734L29.6122 1.19785C29.6122 1.19785 28.175 0.692383 26.6767 0.692383C25.057 0.692383 21.2106 1.34701 21.2106 4.5302C21.2106 7.52516 25.725 7.56237 25.725 9.13552C25.725 10.7087 21.6757 10.4268 20.3394 9.43476L19.8541 12.0378C19.8541 12.0378 21.3115 12.6924 23.5382 12.6924C25.7655 12.6924 29.1257 11.6259 29.1257 8.72339C29.1257 5.70921 24.5707 5.42856 24.5707 4.11807C24.5711 2.80728 27.7498 2.97566 29.1465 3.68734Z" fill="#2566AF"/>
</svg>
