<svg width="31" height="19" viewBox="0 0 31 19" fill="none" xmlns="http://www.w3.org/2000/svg">
<path d="M19.4692 2.60742H11.5298V16.6893H19.4692V2.60742Z" fill="#FF5F00"/>
<path d="M12.0344 9.64997C12.033 8.29359 12.3442 6.95465 12.9447 5.73457C13.5451 4.51448 14.4189 3.44522 15.5 2.60776C14.1615 1.56952 12.5539 0.923902 10.8612 0.74469C9.16839 0.565479 7.45869 0.859907 5.92745 1.59432C4.39621 2.32874 3.10521 3.47352 2.202 4.89782C1.2988 6.32212 0.819824 7.96847 0.819824 9.64873C0.819824 11.329 1.2988 12.9753 2.202 14.3996C3.10521 15.8239 4.39621 16.9687 5.92745 17.7031C7.45869 18.4375 9.16839 18.732 10.8612 18.5528C12.5539 18.3735 14.1615 17.7279 15.5 16.6897C14.4193 15.8525 13.5456 14.7836 12.9452 13.564C12.3448 12.3444 12.0333 11.0059 12.0344 9.64997Z" fill="#EB001B"/>
<path d="M30.1815 9.64978C30.1815 11.3302 29.7024 12.9766 28.799 14.401C27.8957 15.8253 26.6045 16.9701 25.0731 17.7044C23.5416 18.4387 21.8317 18.7329 20.1389 18.5535C18.446 18.374 16.8385 17.7281 15.5 16.6895C16.5803 15.8516 17.4537 14.7824 18.0543 13.5627C18.6549 12.343 18.9669 11.0046 18.9669 9.64854C18.9669 8.29245 18.6549 6.95406 18.0543 5.73437C17.4537 4.51467 16.5803 3.44552 15.5 2.60758C16.8385 1.56901 18.446 0.923078 20.1389 0.743609C21.8317 0.56414 23.5416 0.858379 25.0731 1.59269C26.6045 2.32701 27.8957 3.47176 28.799 4.89611C29.7024 6.32046 30.1815 7.96692 30.1815 9.6473V9.64978Z" fill="#F79E1B"/>
</svg>
